#!OML:ASF F:\VICON\USERDATA\INSTALL\SteveWalk\SteveWalk.ASF
:FULLY-SPECIFIED
:DEGREES
137
root -0.288845 16.3474 -16.4863 18.2001 -1.9405 -0.437574
lowerback -15.7477 1.17063 0.85436
upperback -4.67459 1.34775 1.25656
thorax 3.84642 0.670671 1.08959
lowerneck -3.91207 -0.481246 0.602553
upperneck 8.07446 -0.443405 -2.95886
head 3.27596 -0.314087 -1.08853
rclavicle 1.78906e-015 7.95139e-016
rhumerus -19.5638 5.88774 -86.6799
rradius 46.1555
rwrist -14.5016
rhand -14.8995 -34.1323
rfingers 7.12502
rthumb 11.2617 -63.81
lclavicle 1.78906e-015 7.95139e-016
lhumerus -57.2636 28.0706 60.2986
lradius 13.1235
lwrist -22.561
lhand -16.1563 -14.0087
lfingers 7.12502
lthumb 10.0493 15.7313
rfemur -12.3788 -9.10059 24.0367
rtibia 26.454
rfoot -27.7562 11.8667
rtoes -9.1692
lfemur -48.8977 3.41968 -21.4102
ltibia 24.1496
lfoot -9.66123 8.43445
ltoes -8.44345
138
root -0.277605 16.3382 -16.2818 18.5379 -2.6813 -0.704393
lowerback -15.8829 1.43633 0.97899
upperback -4.81508 1.67935 1.2059
thorax 3.77132 0.834332 1.02908
lowerneck -3.98214 -0.47671 0.703199
upperneck 8.22199 -0.445969 -2.90064
head 3.34023 -0.311516 -1.0895
rclavicle -3.8266e-015 -1.11319e-014
rhumerus -19.1905 6.43319 -86.6952
rradius 47.1364
rwrist -14.7238
rhand -15.1363 -34.0683
rfingers 7.12502
rthumb 11.0333 -63.7583
lclavicle -3.8266e-015 -1.11319e-014
lhumerus -58.447 28.3573 58.8581
lradius 12.7759
lwrist -22.9349
lhand -16.2203 -13.407
lfingers 7.12502
lthumb 9.98758 16.336
rfemur -11.5051 -8.90346 23.9266
rtibia 25.4556
rfoot -27.3858 12.731
rtoes -9.56214
lfemur -49.0069 3.70263 -20.9435
ltibia 21.0678
lfoot -10.0725 7.85963
ltoes -5.00328
139
root -0.268891 16.3303 -16.0842 19.2326 -3.81388 -1.26629
lowerback -16.3965 1.86516 1.31887
upperback -4.95862 2.17837 1.21623
thorax 3.90004 1.07998 0.9567
lowerneck -4.14698 -0.464535 0.697831
upperneck 8.26923 -0.431828 -2.85674
head 3.38851 -0.304433 -1.07547
rclavicle 2.12203e-014 7.55382e-015
rhumerus -18.8713 6.95356 -86.7149
rradius 48.2905
rwrist -14.6464
rhand -15.3225 -34.0222
rfingers 7.12502
rthumb 10.8537 -63.7217
lclavicle 2.12203e-014 7.55382e-015
lhumerus -59.2676 27.9535 58.541
lradius 12.8826
lwrist -22.012
lhand -16.1158 -13.418
lfingers 7.12502
lthumb 10.0884 16.3202
rfemur -11.0839 -8.27114 24.0158
rtibia 24.5332
rfoot -26.8458 13.926
rtoes -8.82661
lfemur -49.5243 4.74117 -20.6414
ltibia 18.3431
lfoot -10.2397 7.24087
ltoes -2.18788
140
root -0.258118 16.3093 -15.858 18.6348 -2.99561 -1.00822
lowerback -16.021 1.50387 1.12658
upperback -4.71918 1.73972 1.21273
thorax 3.94988 0.863799 0.970143
lowerneck -4.32992 -0.475131 0.559476
upperneck 8.19752 -0.442411 -2.79258
head 3.39847 -0.312296 -1.03112
rclavicle -7.1314e-015 -6.36111e-015
rhumerus -18.273 7.56157 -86.6532
rradius 48.8983
rwrist -14.7124
rhand -15.9186 -33.7326
rfingers 7.12502
rthumb 10.2787 -63.4614
lclavicle -7.1314e-015 -6.36111e-015
lhumerus -59.9857 27.4329 58.6335
lradius 13.1429
lwrist -20.8215
lhand -15.9691 -13.9168
lfingers 7.12502
lthumb 10.23 15.8145
rfemur -8.94231 -8.48568 23.7091
rtibia 23.6174
rfoot -26.663 13.3146
rtoes -10.0015
lfemur -49.0209 5.47545 -22.0553
ltibia 16.1143
lfoot -10.3058 4.72081
ltoes -2.63224
141
root -0.244603 16.2887 -15.6591 18.9829 -3.52639 -1.3152
lowerback -16.128 1.73927 1.31481
upperback -4.7876 2.01926 1.18491
thorax 3.9398 1.0018 0.890012
lowerneck -4.45 -0.501929 0.48526
upperneck 8.09731 -0.487254 -2.64219
head 3.38567 -0.331032 -0.970356
rclavicle -1.64246e-014 1.19271e-015
rhumerus -17.6815 8.03073 -86.5633
rradius 49.4502
rwrist -15.189
rhand -16.5646 -33.3111
rfingers 7.12502
rthumb 9.65548 -63.0699
lclavicle -1.64246e-014 1.19271e-015
lhumerus -60.9887 27.6999 57.4242
lradius 13.0298
lwrist -21.1707
lhand -15.748 -14.4837
lfingers 7.12502
lthumb 10.4432 15.2369
rfemur -8.16195 -8.08535 23.652
rtibia 22.865
rfoot -26.0585 13.9397
rtoes -11.1809
lfemur -49.6045 7.05276 -23.0111
ltibia 14.254
lfoot -10.2129 2.68263
ltoes -4.50323
142
root -0.22913 16.2632 -15.4448 19.0936 -4.02978 -1.49119
lowerback -16.2236 1.94028 1.42543
upperback -4.77343 2.2673 1.10112
thorax 4.01221 1.12396 0.79093
lowerneck -4.48946 -0.507701 0.563336
upperneck 7.9799 -0.505479 -2.61729
head 3.35224 -0.336221 -0.975803
rclavicle 8.68441e-015 6.36111e-015
rhumerus -17.3078 8.27928 -86.5088
rradius 50.2395
rwrist -15.5481
rhand -16.6749 -33.5213
rfingers 7.12502
rthumb 9.54905 -63.2849
lclavicle 8.68441e-015 6.36111e-015
lhumerus -61.7685 27.7033 56.6022
lradius 12.9882
lwrist -21.1887
lhand -15.4457 -14.2254
lfingers 7.12502
lthumb 10.7349 15.4803
rfemur -7.14581 -7.8957 23.3959
rtibia 22.2246
rfoot -25.526 14.7415
rtoes -12.0315
lfemur -49.8694 8.23461 -23.7791
ltibia 12.7194
lfoot -10.5723 0.721372
ltoes -6.10949
143
root -0.216729 16.2409 -15.2208 18.988 -4.61961 -1.31431
lowerback -16.2412 2.06436 1.13289
upperback -4.68164 2.48351 0.944873
thorax 4.1135 1.22955 0.836344
lowerneck -4.53307 -0.483562 0.667188
upperneck 7.86592 -0.479301 -2.6671
head 3.32188 -0.321657 -1.00854
rclavicle 1.16041e-014 1.35174e-014
rhumerus -16.9345 8.46792 -86.4947
rradius 50.7452
rwrist -15.5141
rhand -16.7495 -33.4438
rfingers 7.12502
rthumb 9.47703 -63.2107
lclavicle 1.16041e-014 1.35174e-014
lhumerus -62.3799 27.508 56.2584
lradius 13.1423
lwrist -20.697
lhand -15.1045 -13.16
lfingers 7.12502
lthumb 11.064 16.5284
rfemur -5.99615 -7.42929 22.7391
rtibia 21.7477
rfoot -25.0472 15.0399
rtoes -12.7312
lfemur -49.8505 9.03453 -24.6339
ltibia 11.7848
lfoot -11.0749 -0.790255
ltoes -6.09761
144
root -0.202496 16.219 -14.9959 18.8623 -4.97801 -1.21779
lowerback -16.2371 2.16017 1.01443
upperback -4.60379 2.63568 0.79193
thorax 4.19526 1.30382 0.773722
lowerneck -4.53375 -0.448178 0.631765
upperneck 7.82525 -0.446058 -2.47072
head 3.30812 -0.298379 -0.936005
rclavicle -1.70458e-014 -4.37326e-015
rhumerus -16.7042 8.67178 -86.5015
rradius 51.096
rwrist -15.417
rhand -16.9841 -32.9145
rfingers 7.12502
rthumb 9.2507 -62.6915
lclavicle -1.70458e-014 -4.37326e-015
lhumerus -63.2841 27.7412 55.0277
lradius 13.0738
lwrist -21.2471
lhand -14.9393 -12.6193
lfingers 7.12502
lthumb 11.2233 17.0605
rfemur -4.80031 -6.83501 22.2422
rtibia 21.3043
rfoot -24.5066 15.0147
rtoes -13.3426
lfemur -49.9181 9.42187 -25.1415
ltibia 11.5675
lfoot -11.3742 -1.99631
ltoes -4.65373
145
root -0.184279 16.1925 -14.771 18.8215 -5.01485 -1.49218
lowerback -16.1462 2.24765 1.30693
upperback -4.63597 2.70694 0.773502
thorax 4.12649 1.33994 0.598939
lowerneck -4.50173 -0.483926 0.570936
upperneck 7.82204 -0.499869 -2.34316
head 3.29963 -0.321735 -0.88545
rclavicle 6.82328e-014 3.33958e-014
rhumerus -16.8472 8.78872 -86.4569
rradius 51.6494
rwrist -15.2951
rhand -17.0287 -32.1603
rfingers 7.12502
rthumb 9.20764 -61.9393
lclavicle 6.82328e-014 3.33958e-014
lhumerus -64.3955 28.1501 53.3336
lradius 12.7258
lwrist -22.6658
lhand -15.288 -12.7788
lfingers 7.12502
lthumb 10.887 16.919
rfemur -3.807 -6.56245 22.2155
rtibia 21.1357
rfoot -24.0564 15.2407
rtoes -13.9788
lfemur -49.9998 9.34109 -24.9075
ltibia 11.6896
lfoot -11.5983 -2.62074
ltoes -4.56168
146
root -0.165129 16.1563 -14.5409 18.7519 -4.80219 -1.82056
lowerback -15.9348 2.26359 1.63709
upperback -4.72642 2.68006 0.813165
thorax 3.93045 1.3275 0.438553
lowerneck -4.51181 -0.57292 0.534487
upperneck 7.87521 -0.614582 -2.35414
head 3.318 -0.380469 -0.888053
rclavicle 2.42269e-014 5.76476e-015
rhumerus -17.3448 8.67791 -86.4307
rradius 52.4224
rwrist -15.1616
rhand -16.9248 -31.3521
rfingers 7.12502
rthumb 9.30788 -61.1267
lclavicle 2.42269e-014 5.76476e-015
lhumerus -65.1987 28.1056 52.4531
lradius 12.5153
lwrist -23.449
lhand -15.7701 -12.7129
lfingers 7.12502
lthumb 10.422 17.0088
rfemur -3.04274 -6.50531 22.3173
rtibia 21.4898
rfoot -23.6975 15.529
rtoes -13.2327
lfemur -49.6648 8.7179 -24.2264
ltibia 11.7252
lfoot -11.6979 -2.51594
ltoes -5.112
147
root -0.156603 16.1161 -14.3102 18.6565 -4.82677 -1.61365
lowerback -15.9321 2.24443 1.25077
upperback -4.72537 2.72173 0.697802
thorax 3.9188 1.34742 0.542663
lowerneck -4.48208 -0.607362 0.471083
upperneck 7.81781 -0.673653 -2.15029
head 3.29144 -0.403291 -0.811815
rclavicle -2.78299e-015 -1.78906e-015
rhumerus -17.848 8.47267 -86.4324
rradius 53.2116
rwrist -15.0905
rhand -16.8967 -30.9302
rfingers 7.12502
rthumb 9.335 -60.7035
lclavicle -2.78299e-015 -1.78906e-015
lhumerus -65.7634 27.9538 51.7578
lradius 12.4036
lwrist -24.018
lhand -15.7256 -12.6496
lfingers 7.12502
lthumb 10.4649 17.0699
rfemur -2.4549 -5.90561 21.8944
rtibia 22.1416
rfoot -23.1612 15.3663
rtoes -12.1902
lfemur -49.2884 7.70119 -23.7276
ltibia 12.2353
lfoot -12.0111 -1.76834
ltoes -3.92226
148
root -0.162004 16.0793 -14.0771 18.5935 -5.49201 -0.757927
lowerback -16.1857 2.26986 -0.136956
upperback -4.64704 2.98553 0.432325
thorax 4.08227 1.47347 1.10835
lowerneck -4.56032 -0.625292 0.412571
upperneck 7.76997 -0.712068 -1.92692
head 3.28954 -0.41556 -0.730299
rclavicle 3.80051e-014 1.92821e-014
rhumerus -18.2448 8.46335 -86.3234
rradius 53.8262
rwrist -15.0441
rhand -17.2466 -30.7543
rfingers 7.12502
rthumb 8.99737 -60.5424
lclavicle 3.80051e-014 1.92821e-014
lhumerus -66.8952 28.7653 49.3429
lradius 12.062
lwrist -26.4994
lhand -15.3319 -12.8949
lfingers 7.12502
lthumb 10.8446 16.8051
rfemur -2.17762 -4.54372 20.7639
rtibia 22.9431
rfoot -22.3611 14.7032
rtoes -16.9567
lfemur -49.1021 6.5294 -23.5947
ltibia 13.5236
lfoot -12.7069 -0.272392
ltoes -1.4484
149
root -0.145321 16.0466 -13.832 18.5205 -5.40763 -0.536429
lowerback -16.3267 2.23934 -0.500781
upperback -4.62641 3.00826 0.352739
thorax 4.16461 1.48273 1.24081
lowerneck -4.69851 -0.733362 0.341017
upperneck 7.91187 -0.853048 -1.87951
head 3.36354 -0.486916 -0.710621
rclavicle -3.57812e-014 -1.19271e-014
rhumerus -18.7756 8.54781 -86.1502
rradius 54.3218
rwrist -15.0954
rhand -17.6782 -30.7138
rfingers 7.12502
rthumb 8.5809 -60.5194
lclavicle -3.57812e-014 -1.19271e-014
lhumerus -68.3225 29.8292 46.3817
lradius 11.705
lwrist -29.59
lhand -15.0602 -13.0278
lfingers 7.12502
lthumb 11.1067 16.6583
rfemur -1.84882 -4.28438 20.3112
rtibia 23.9842
rfoot -21.5102 14.9382
rtoes -17.6774
lfemur -48.8764 5.36557 -23.1451
ltibia 15.0945
lfoot -13.1124 0.163137
ltoes 5.36083
